<?xml version="1.0" standalone="no"?>
<!DOCTYPE svg PUBLIC "-//W3C//DTD SVG 20010904//EN"
 "http://www.w3.org/TR/2001/REC-SVG-20010904/DTD/svg10.dtd">
<svg version="1.0" xmlns="http://www.w3.org/2000/svg"
 width="500.000000pt" height="500.000000pt" viewBox="0 0 500.000000 500.000000"
 preserveAspectRatio="xMidYMid meet">

<g transform="translate(0.000000,500.000000) scale(0.100000,-0.100000)"
fill="#000000" stroke="none">
<path d="M2414 3698 c-53 -28 -60 -95 -16 -151 36 -45 86 -87 104 -87 16 0
100 84 117 117 17 34 13 77 -9 101 -25 26 -17 24 -106 27 -39 2 -79 -2 -90 -7z
m68 -55 c17 -15 19 -15 39 3 15 14 24 16 37 8 31 -20 26 -51 -17 -96 l-40 -43
-36 35 c-41 39 -53 73 -35 95 16 19 29 19 52 -2z"/>
<path d="M2700 3520 c-27 -27 -25 -66 5 -95 30 -30 54 -31 89 -4 30 24 34 63
10 97 -20 29 -76 30 -104 2z m68 -47 c-2 -10 -10 -18 -18 -18 -8 0 -16 8 -18
18 -2 12 3 17 18 17 15 0 20 -5 18 -17z"/>
<path d="M2244 3507 c-5 -14 3 -74 27 -194 8 -41 15 -53 29 -53 10 0 21 3 23
8 3 4 -5 61 -17 127 -17 95 -25 120 -39 123 -9 2 -20 -3 -23 -11z"/>
<path d="M2004 3497 c-3 -9 6 -46 19 -84 19 -52 30 -69 46 -71 28 -4 27 18 -3
99 -23 63 -50 86 -62 56z"/>
<path d="M2905 3406 c-37 -103 -38 -130 -7 -124 17 3 92 195 85 216 -3 6 -13
12 -23 12 -14 0 -27 -25 -55 -104z"/>
<path d="M2452 3404 c-13 -9 -27 -27 -32 -39 -11 -29 37 -614 52 -632 6 -7 18
-13 28 -13 10 0 22 6 28 13 16 19 65 613 52 636 -25 48 -86 65 -128 35z m77
-47 c8 -10 6 -70 -8 -223 -10 -115 -20 -202 -24 -194 -3 8 -12 102 -21 209
-16 202 -14 221 24 221 10 0 23 -6 29 -13z"/>
<path d="M2705 3358 c-22 -103 -34 -193 -26 -201 29 -29 54 31 68 165 5 54 5
58 -15 58 -14 0 -23 -8 -27 -22z"/>
<path d="M2110 3305 c-14 -8 -32 -14 -41 -15 -44 -1 -66 -82 -31 -113 10 -9
40 -26 67 -38 47 -21 49 -21 63 -3 48 63 54 133 16 163 -31 25 -40 25 -74 6z
m46 -77 c-12 -46 -20 -51 -55 -34 -29 16 -40 39 -23 50 4 2 14 1 22 -4 10 -6
19 -2 28 12 18 25 37 9 28 -24z"/>
<path d="M2982 3171 c-29 -49 -52 -96 -52 -104 0 -28 29 -27 48 1 44 63 103
173 97 182 -17 28 -43 6 -93 -79z"/>
<path d="M2807 3138 c-43 -121 -46 -141 -16 -136 18 2 29 24 60 111 22 60 37
113 33 118 -3 5 -13 9 -22 9 -13 0 -27 -26 -55 -102z"/>
<path d="M2270 3210 c-28 -28 -27 -84 2 -104 51 -36 118 -5 118 54 0 17 -9 39
-20 50 -11 11 -33 20 -50 20 -17 0 -39 -9 -50 -20z m70 -50 c0 -13 -7 -20 -20
-20 -13 0 -20 7 -20 20 0 13 7 20 20 20 13 0 20 -7 20 -20z"/>
<path d="M1904 3206 c-3 -7 8 -34 23 -60 20 -34 33 -46 48 -44 26 4 24 24 -9
76 -26 42 -52 54 -62 28z"/>
<path d="M2155 3078 c-4 -12 86 -272 99 -285 10 -11 36 7 36 24 -1 10 -22 74
-48 143 -33 88 -52 126 -65 128 -9 2 -19 -2 -22 -10z"/>
<path d="M1996 3051 c-8 -12 43 -100 67 -115 14 -8 20 -8 27 4 6 10 0 30 -20
65 -27 48 -61 68 -74 46z"/>
<path d="M1813 3005 c-20 -19 -40 -35 -44 -35 -20 0 -49 -46 -49 -77 0 -64 67
-103 178 -103 28 0 52 1 52 3 0 1 4 29 10 61 12 75 0 134 -35 164 -37 32 -70
28 -112 -13z m95 -48 c9 -18 11 -43 6 -72 -6 -43 -8 -45 -40 -45 -50 0 -104
25 -104 48 0 26 25 46 50 39 16 -4 20 0 20 17 0 50 46 59 68 13z"/>
<path d="M3075 3018 c-35 -30 -47 -89 -35 -164 6 -32 10 -60 10 -61 0 -2 24
-3 53 -3 110 0 177 39 177 103 0 35 -5 42 -83 107 -55 46 -85 50 -122 18z m73
-40 c7 -7 12 -20 12 -30 0 -11 7 -18 19 -18 34 0 51 -12 51 -36 0 -29 -25 -43
-89 -51 l-48 -5 -7 44 c-12 78 24 134 62 96z"/>
<path d="M2667 2952 c-22 -24 -21 -67 3 -120 26 -56 43 -61 106 -28 67 35 87
74 57 114 -11 15 -31 29 -44 30 -13 2 -28 8 -33 13 -17 16 -72 10 -89 -9z m69
-47 c4 -10 13 -13 25 -10 47 15 45 -26 -2 -46 -35 -14 -46 -7 -55 39 -5 26 -3
32 10 32 9 0 19 -7 22 -15z"/>
<path d="M1971 2764 c-24 -20 -31 -34 -31 -62 0 -35 13 -51 224 -261 188 -188
227 -222 245 -216 13 4 21 15 21 29 0 27 -316 484 -356 515 -36 28 -66 26
-103 -5z m86 -46 c11 -13 53 -70 93 -128 40 -58 89 -127 108 -155 25 -36 -8
-7 -116 100 -84 82 -152 157 -152 165 0 19 19 40 35 40 6 0 21 -10 32 -22z"/>
<path d="M2920 2763 c-48 -45 -350 -483 -350 -509 0 -28 33 -41 57 -22 10 8
111 108 226 224 193 195 207 212 207 246 0 28 -7 42 -31 62 -39 33 -71 33
-109 -1z m78 -35 c7 -7 12 -19 12 -28 0 -8 -68 -83 -152 -165 -108 -107 -141
-136 -116 -100 19 28 68 97 108 155 108 155 120 166 148 138z"/>
<path d="M2280 2731 c0 -34 62 -192 77 -198 35 -14 35 16 -2 116 -29 79 -41
101 -56 101 -12 0 -19 -7 -19 -19z"/>
<path d="M2666 2741 c-14 -22 -66 -175 -66 -192 0 -15 6 -20 21 -17 17 2 28
22 55 98 19 52 32 101 29 108 -5 14 -31 16 -39 3z"/>
<path d="M3170 2687 c-74 -52 -92 -79 -58 -85 25 -5 169 98 166 117 -6 29 -33
21 -108 -32z"/>
<path d="M1720 2671 c0 -22 118 -123 140 -119 33 7 18 36 -43 86 -68 55 -97
65 -97 33z"/>
<path d="M3145 2536 c-25 -25 -50 -99 -41 -121 6 -15 67 -35 109 -35 29 0 67
31 67 55 0 24 -41 94 -63 110 -30 21 -44 19 -72 -9z m50 -56 c-4 -12 1 -19 15
-23 30 -8 24 -27 -7 -27 -46 0 -53 10 -37 48 14 34 40 36 29 2z"/>
<path d="M2473 2490 c-69 -28 -48 -133 27 -133 59 0 91 67 53 111 -22 25 -51
33 -80 22z m44 -56 c8 -21 -13 -42 -28 -27 -13 13 -5 43 11 43 6 0 13 -7 17
-16z"/>
<path d="M1800 2450 c0 -21 90 -80 123 -80 36 0 17 36 -37 68 -62 37 -86 40
-86 12z"/>
<path d="M2967 2361 c-68 -37 -86 -56 -67 -75 17 -17 160 62 160 88 0 27 -27
23 -93 -13z"/>
<path d="M1990 2370 c-41 -41 -12 -120 45 -120 32 0 75 42 75 73 0 31 -39 67
-73 67 -15 0 -36 -9 -47 -20z m65 -50 c0 -8 -8 -16 -17 -18 -13 -2 -18 3 -18
18 0 15 5 20 18 18 9 -2 17 -10 17 -18z"/>
<path d="M2127 2283 c-21 -20 0 -42 85 -90 79 -45 94 -51 106 -39 8 8 12 18 8
24 -5 8 -180 112 -189 112 -2 0 -7 -3 -10 -7z"/>
<path d="M2742 2231 c-78 -44 -99 -69 -71 -86 14 -9 173 87 177 107 6 31 -26
25 -106 -21z"/>
<path d="M130 1725 c-102 -46 -152 -165 -115 -275 51 -154 210 -206 329 -108
41 33 46 54 15 63 -15 5 -25 1 -36 -15 -9 -12 -31 -28 -49 -36 -70 -29 -132
-11 -181 52 -58 77 -37 217 40 264 58 36 155 20 190 -30 12 -17 16 -18 32 -6
24 17 15 37 -30 72 -46 35 -139 44 -195 19z"/>
<path d="M460 1515 l0 -225 25 0 c25 0 25 1 25 80 l0 80 63 0 63 0 52 -80 c43
-67 56 -80 78 -80 32 0 31 4 -31 100 -25 39 -45 73 -43 75 2 1 13 8 26 14 60
32 80 130 39 192 -36 55 -76 69 -194 69 l-103 0 0 -225z m237 151 c23 -20 28
-32 28 -71 0 -39 -5 -51 -28 -71 -25 -21 -38 -24 -108 -24 l-79 0 0 95 0 95
79 0 c70 0 83 -3 108 -24z"/>
<path d="M1007 1733 c-9 -15 -177 -430 -177 -437 0 -4 12 -6 27 -4 23 3 31 13
53 68 l26 65 94 0 94 0 26 -65 c22 -55 30 -65 53 -68 15 -2 27 0 27 5 0 5 -40
105 -88 223 -72 177 -92 216 -109 218 -12 2 -23 0 -26 -5z m63 -155 c19 -51
37 -96 38 -100 2 -4 -33 -8 -78 -8 -45 0 -80 4 -78 8 2 4 19 49 38 100 19 50
37 92 40 92 3 0 21 -41 40 -92z"/>
<path d="M1300 1520 l0 -220 25 0 c24 0 24 1 27 98 l3 97 98 3 c89 2 97 4 97
22 0 19 -7 20 -100 20 l-100 0 0 75 0 75 120 0 120 0 0 25 0 25 -145 0 -145 0
0 -220z"/>
<path d="M1620 1715 c0 -24 2 -25 75 -25 l75 0 0 -195 0 -195 30 0 30 0 0 195
0 195 75 0 c73 0 75 1 75 25 l0 25 -180 0 -180 0 0 -25z"/>
<path d="M2050 1515 l0 -225 25 0 25 0 2 173 3 172 75 -132 c44 -79 81 -133
90 -133 9 0 41 48 78 113 98 178 92 179 91 -18 l-1 -170 26 -3 26 -3 0 225 0
226 -29 0 c-26 0 -34 -10 -97 -122 -37 -68 -74 -133 -82 -146 -14 -22 -17 -18
-95 123 -74 134 -83 145 -109 145 l-28 0 0 -225z"/>
<path d="M2560 1734 c0 -3 35 -63 77 -133 l78 -126 5 -90 c5 -88 6 -90 30 -90
24 0 25 2 30 90 l5 90 78 128 c42 70 77 130 77 133 0 2 -12 4 -27 4 -25 0 -35
-12 -93 -115 -36 -63 -67 -115 -70 -115 -3 0 -34 52 -70 115 -58 102 -68 115
-92 115 -16 0 -28 -3 -28 -6z"/>
<path d="M3010 1515 l0 -225 150 0 150 0 0 25 0 24 -122 3 -123 3 -3 78 -3 77
106 0 c98 0 105 1 105 20 0 18 -8 20 -102 22 l-103 3 -3 73 -3 72 121 0 120 0
0 25 0 25 -145 0 -145 0 0 -225z"/>
<path d="M3350 1732 c0 -10 153 -391 170 -422 7 -14 19 -20 33 -18 17 2 36 40
109 223 48 121 88 221 88 223 0 2 -12 2 -27 0 -26 -3 -32 -15 -94 -172 -36
-93 -70 -176 -75 -184 -7 -10 -29 35 -81 169 -65 168 -73 184 -97 187 -14 2
-26 -1 -26 -6z"/>
<path d="M3820 1515 l0 -226 148 3 c144 3 147 3 150 26 3 22 2 22 -122 22
l-126 0 0 80 0 80 105 0 c98 0 105 1 105 20 0 19 -7 20 -105 20 l-105 0 0 75
0 75 120 0 120 0 0 25 0 25 -145 0 -145 0 0 -225z"/>
<path d="M4200 1516 l0 -226 25 0 25 0 2 172 3 171 134 -171 c105 -134 140
-172 158 -172 l23 0 0 225 0 225 -25 0 -25 0 0 -171 c0 -95 -4 -169 -9 -167
-5 2 -67 77 -138 168 -87 111 -136 166 -151 168 l-22 3 0 -225z"/>
<path d="M4640 1715 c0 -24 2 -25 75 -25 l75 0 0 -195 0 -195 25 0 25 0 0 195
0 195 80 0 c79 0 80 0 80 25 l0 25 -180 0 -180 0 0 -25z"/>
</g>
</svg>
