<?xml version="1.0" standalone="no"?>
<!DOCTYPE svg PUBLIC "-//W3C//DTD SVG 20010904//EN"
 "http://www.w3.org/TR/2001/REC-SVG-20010904/DTD/svg10.dtd">
<svg version="1.0" xmlns="http://www.w3.org/2000/svg"
 width="500.000000pt" height="500.000000pt" viewBox="0 0 500.000000 500.000000"
 preserveAspectRatio="xMidYMid meet">

<g transform="translate(0.000000,500.000000) scale(0.100000,-0.100000)"
fill="#000000" stroke="none">
<path d="M123 2706 c-137 -64 -162 -259 -46 -368 76 -73 184 -75 267 -6 41 33
46 54 15 63 -15 5 -25 1 -36 -15 -35 -50 -129 -64 -183 -27 -55 37 -74 70 -78
142 -4 55 -1 70 22 108 51 89 172 104 232 30 20 -24 23 -25 44 -10 l21 15 -35
35 c-60 61 -139 72 -223 33z"/>
<path d="M460 2510 l0 -220 25 0 c23 0 24 3 27 78 l3 77 57 3 58 3 51 -81 c45
-71 54 -80 81 -80 l30 0 -23 38 c-12 20 -36 56 -52 80 -16 24 -27 45 -25 46 1
2 13 9 26 15 60 32 80 130 39 192 -36 55 -76 69 -194 69 l-103 0 0 -220z m237
146 c23 -20 28 -32 28 -71 0 -39 -5 -51 -29 -71 -25 -22 -36 -25 -105 -22
l-76 3 -3 93 -3 92 80 0 c70 0 83 -3 108 -24z"/>
<path d="M996 2698 c-57 -137 -159 -385 -163 -395 -3 -9 5 -13 23 -13 26 0 32
7 54 63 l25 62 95 0 95 0 25 -62 c22 -56 28 -63 53 -63 15 0 27 3 26 8 0 4
-40 102 -88 217 -73 177 -90 211 -109 213 -17 3 -26 -4 -36 -30z m74 -130 c19
-51 37 -96 38 -100 2 -4 -33 -8 -78 -8 -74 0 -81 2 -75 18 47 125 71 182 75
182 3 0 21 -41 40 -92z"/>
<path d="M1300 2510 l0 -220 25 0 c25 0 25 0 25 95 l0 95 100 0 100 0 0 25 0
25 -100 0 -100 0 0 75 0 75 120 0 120 0 0 25 0 25 -145 0 -145 0 0 -220z"/>
<path d="M1620 2705 c0 -23 3 -24 78 -27 l77 -3 0 -193 0 -192 28 0 27 0 0
195 0 195 75 0 c73 0 75 1 75 25 l0 25 -180 0 -180 0 0 -25z"/>
<path d="M2050 2510 l0 -220 25 0 25 0 2 168 3 167 75 -133 c51 -90 79 -132
90 -130 8 2 46 58 85 126 38 67 72 122 75 122 3 0 4 -72 2 -160 l-3 -160 31 0
30 0 0 220 0 220 -28 0 c-26 0 -35 -11 -101 -129 -40 -72 -78 -137 -85 -145
-9 -13 -25 10 -91 129 -73 132 -82 145 -107 145 l-28 0 0 -220z"/>
<path d="M2564 2713 c4 -9 40 -72 81 -140 l75 -124 0 -80 c0 -78 0 -79 25 -79
24 0 25 2 25 74 l0 75 85 141 c47 78 85 143 85 146 0 2 -11 4 -25 4 -27 0 -43
-21 -120 -158 -22 -39 -42 -72 -45 -72 -3 0 -36 52 -73 115 -58 100 -71 115
-93 115 -20 0 -25 -4 -20 -17z"/>
<path d="M3010 2510 l0 -220 150 0 c143 0 150 1 150 20 0 19 -7 20 -125 20
l-125 0 0 80 0 80 105 0 c98 0 105 1 105 20 0 19 -7 20 -105 20 l-105 0 0 75
0 75 120 0 120 0 0 25 0 25 -145 0 -145 0 0 -220z"/>
<path d="M3430 2513 c84 -208 90 -218 117 -221 28 -3 29 0 113 208 47 116 87
216 89 221 2 6 -9 9 -25 7 -26 -3 -32 -13 -99 -180 -39 -97 -73 -179 -76 -183
-3 -3 -39 78 -79 180 -70 179 -74 185 -101 185 l-28 0 89 -217z"/>
<path d="M3820 2510 l0 -220 150 0 c143 0 150 1 150 20 0 19 -7 20 -125 20
l-125 0 0 80 0 80 105 0 c98 0 105 1 105 20 0 19 -7 20 -105 20 l-105 0 0 75
0 75 120 0 120 0 0 25 0 25 -145 0 -145 0 0 -220z"/>
<path d="M4200 2510 l0 -220 25 0 25 0 2 166 3 166 130 -166 c112 -143 134
-166 158 -166 l27 0 0 220 0 220 -25 0 -25 0 0 -170 c0 -93 -3 -170 -8 -170
-4 0 -67 77 -141 170 -89 114 -139 170 -152 170 -18 0 -19 -10 -19 -220z"/>
<path d="M4640 2705 c0 -24 2 -25 75 -25 l75 0 0 -195 0 -195 25 0 25 0 0 195
0 195 80 0 c79 0 80 0 80 25 l0 25 -180 0 -180 0 0 -25z"/>
</g>
</svg>
